<svg width="428" height="523" viewBox="0 0 428 523" fill="none" xmlns="http://www.w3.org/2000/svg">
<path d="M104.818 310.992C0.156498 226.328 -15.5042 72.9352 69.8463 -31.6215C155.197 -136.178 309.232 -152.299 413.893 -67.6349C518.555 17.0287 534.215 170.421 448.865 274.978C363.514 379.535 209.479 395.655 104.818 310.992Z" stroke="url(#paint0_linear_1741_265)" stroke-width="2"/>
<path d="M100.557 316.21C-6.98864 229.212 -23.0809 71.5915 64.6221 -35.8471C152.325 -143.286 310.606 -159.85 418.152 -72.8532C525.698 14.1441 541.791 171.765 454.088 279.203C366.385 386.642 208.104 403.207 100.557 316.21Z" stroke="url(#paint1_linear_1741_265)" stroke-width="2"/>
<path d="M96.2991 321.428C-14.1318 232.097 -30.6557 70.248 59.3997 -40.0724C149.455 -150.393 311.982 -167.402 422.413 -78.0711C532.844 11.2599 549.368 173.109 459.312 283.429C369.257 393.75 206.73 410.759 96.2991 321.428Z" stroke="url(#paint2_linear_1741_265)" stroke-width="2"/>
<path d="M92.0388 326.646C-21.277 234.982 -38.2325 68.9047 54.1755 -44.2977C146.583 -157.5 313.356 -174.954 426.672 -83.2889C539.988 8.37574 556.943 174.453 464.535 287.655C372.127 400.857 205.355 418.311 92.0388 326.646Z" stroke="url(#paint3_linear_1741_265)" stroke-width="2"/>
<path d="M87.7795 331.864C-28.4212 237.866 -45.8082 67.5608 48.9522 -48.5234C143.713 -164.608 314.731 -182.506 430.932 -88.5073C547.133 5.49106 564.52 175.796 469.759 291.88C374.999 407.964 203.98 425.862 87.7795 331.864Z" stroke="url(#paint4_linear_1741_265)" stroke-width="2"/>
<path d="M83.5197 337.082C-35.5659 240.75 -53.3845 66.2174 43.7284 -52.7487C140.841 -171.715 316.105 -190.057 435.191 -93.7251C554.277 2.60687 572.095 177.14 474.982 296.106C377.87 415.072 202.605 433.414 83.5197 337.082Z" stroke="url(#paint5_linear_1741_265)" stroke-width="2"/>
<path d="M79.2604 342.3C-42.7102 243.634 -60.9604 64.8734 38.505 -56.9745C137.97 -178.822 317.48 -197.609 439.451 -98.9436C561.422 -0.27788 579.672 178.483 480.206 300.331C380.741 422.179 201.231 440.966 79.2604 342.3Z" stroke="url(#paint6_linear_1741_265)" stroke-width="2"/>
<path d="M113.337 300.555C14.4459 220.559 -0.351576 75.6224 80.2938 -23.1705C160.939 -121.963 306.483 -137.195 405.375 -57.1987C504.266 22.7975 519.064 167.734 438.418 266.527C357.773 365.32 212.229 380.552 113.337 300.555Z" stroke="url(#paint7_linear_1741_265)" stroke-width="2"/>
<path d="M117.597 295.338C21.5901 217.675 7.22424 76.9663 85.5172 -18.9447C163.81 -114.856 305.108 -129.643 401.115 -51.9804C497.121 25.6822 511.487 166.391 433.194 262.302C354.901 358.213 213.603 373 117.597 295.338Z" stroke="url(#paint8_linear_1741_265)" stroke-width="2"/>
<path d="M121.855 290.119C28.7338 214.79 14.7995 78.3097 90.7399 -14.7195C166.68 -107.749 303.733 -122.091 396.855 -46.7625C489.976 28.5664 503.91 165.047 427.97 258.076C352.03 351.105 214.977 365.448 121.855 290.119Z" stroke="url(#paint9_linear_1741_265)" stroke-width="2"/>
<path d="M126.116 284.901C35.879 211.906 22.3763 79.6535 95.9642 -10.4938C169.552 -100.641 302.359 -114.539 392.596 -41.5442C482.832 31.451 496.335 163.704 422.747 253.851C349.159 343.998 216.352 357.897 126.116 284.901Z" stroke="url(#paint10_linear_1741_265)" stroke-width="2"/>
<path d="M130.375 279.683C43.0232 209.021 29.9521 80.9969 101.187 -6.26857C172.423 -93.534 300.984 -106.988 388.336 -36.3264C475.688 34.3352 488.759 162.36 417.523 249.625C346.288 336.891 217.727 350.345 130.375 279.683Z" stroke="url(#paint11_linear_1741_265)" stroke-width="2"/>
<path d="M134.635 274.465C50.1684 206.137 37.5289 82.3407 106.412 -2.04287C175.295 -86.4264 299.61 -99.436 384.077 -31.1081C468.544 37.2198 481.183 161.016 412.301 245.4C343.418 329.783 219.102 342.793 134.635 274.465Z" stroke="url(#paint12_linear_1741_265)" stroke-width="2"/>
<path d="M138.895 269.247C57.3126 203.253 45.1046 83.6841 111.635 2.18245C178.166 -79.3192 298.235 -91.8844 379.817 -25.8901C461.399 40.1041 473.607 159.672 407.077 241.174C340.546 322.676 220.477 335.241 138.895 269.247Z" stroke="url(#paint13_linear_1741_265)" stroke-width="2"/>
<path d="M143.154 264.029C64.4573 200.368 52.6809 85.0279 116.859 6.40814C181.037 -72.2117 296.861 -84.3324 375.558 -20.6719C454.255 42.9887 466.031 158.329 401.853 236.949C337.675 315.569 221.852 327.689 143.154 264.029Z" stroke="url(#paint14_linear_1741_265)" stroke-width="2"/>
<path d="M147.413 258.811C71.601 197.484 60.2562 86.3713 122.082 10.6334C183.907 -65.1045 295.485 -76.7809 371.297 -15.454C447.11 45.8729 458.454 156.985 396.629 232.723C334.804 308.461 223.226 320.137 147.413 258.811Z" stroke="url(#paint15_linear_1741_265)" stroke-width="2"/>
<path d="M151.673 253.593C78.7456 194.599 67.8325 87.7151 127.305 14.8591C186.778 -57.997 294.111 -69.2289 367.038 -10.2357C439.965 48.7575 450.879 155.642 391.406 228.498C331.933 301.354 224.6 312.586 151.673 253.593Z" stroke="url(#paint16_linear_1741_265)" stroke-width="2"/>
<path d="M155.932 248.375C85.8899 191.715 75.4083 89.059 132.529 19.0848C189.649 -50.8894 292.736 -61.6769 362.778 -5.0174C432.821 51.6421 443.302 154.298 386.182 224.273C329.061 294.247 225.975 305.034 155.932 248.375Z" stroke="url(#paint17_linear_1741_265)" stroke-width="2"/>
<path d="M160.192 243.156C93.0341 188.831 82.9841 90.4023 137.752 23.31C192.52 -43.7823 291.361 -54.1254 358.518 0.200458C425.676 54.5263 435.726 152.954 380.958 220.047C326.19 287.139 227.349 297.482 160.192 243.156Z" stroke="url(#paint18_linear_1741_265)" stroke-width="2"/>
<path d="M164.452 237.939C100.179 185.946 90.5608 91.7462 142.976 27.5358C195.392 -36.6746 289.987 -46.5734 354.26 5.41881C418.532 57.411 428.151 151.611 375.735 215.822C323.32 280.032 228.725 289.931 164.452 237.939Z" stroke="url(#paint19_linear_1741_265)" stroke-width="2"/>
<path d="M168.711 232.72C107.323 183.062 98.1366 93.0896 148.2 31.761C198.262 -29.5675 288.612 -39.0218 350 10.6367C411.388 60.2952 420.574 150.267 370.511 211.596C320.448 272.924 230.099 282.379 168.711 232.72Z" stroke="url(#paint20_linear_1741_265)" stroke-width="2"/>
<path d="M109.077 305.774C7.30072 223.444 -7.92832 74.279 75.0696 -27.3958C158.068 -129.071 307.857 -144.747 409.634 -62.4166C511.41 19.9133 526.639 169.078 443.641 270.753C360.643 372.428 210.853 388.104 109.077 305.774Z" stroke="url(#paint21_linear_1741_265)" stroke-width="2"/>
<defs>
<linearGradient id="paint0_linear_1741_265" x1="449.102" y1="276.269" x2="70.4442" y2="-33.9294" gradientUnits="userSpaceOnUse">
<stop stop-color="#00CBFF"/>
<stop offset="0.927083" stop-color="white" stop-opacity="0"/>
</linearGradient>
<linearGradient id="paint1_linear_1741_265" x1="454.31" y1="280.513" x2="65.2578" y2="-38.2011" gradientUnits="userSpaceOnUse">
<stop stop-color="#00CBFF"/>
<stop offset="0.927083" stop-color="white" stop-opacity="0"/>
</linearGradient>
<linearGradient id="paint2_linear_1741_265" x1="459.52" y1="284.757" x2="60.0732" y2="-42.4725" gradientUnits="userSpaceOnUse">
<stop stop-color="#00CBFF"/>
<stop offset="0.927083" stop-color="white" stop-opacity="0"/>
</linearGradient>
<linearGradient id="paint3_linear_1741_265" x1="464.728" y1="289.001" x2="54.8867" y2="-46.7438" gradientUnits="userSpaceOnUse">
<stop stop-color="#00CBFF"/>
<stop offset="0.927083" stop-color="white" stop-opacity="0"/>
</linearGradient>
<linearGradient id="paint4_linear_1741_265" x1="469.937" y1="293.244" x2="49.7012" y2="-51.0157" gradientUnits="userSpaceOnUse">
<stop stop-color="#00CBFF"/>
<stop offset="0.927083" stop-color="white" stop-opacity="0"/>
</linearGradient>
<linearGradient id="paint5_linear_1741_265" x1="475.145" y1="297.488" x2="44.5151" y2="-55.287" gradientUnits="userSpaceOnUse">
<stop stop-color="#00CBFF"/>
<stop offset="0.927083" stop-color="white" stop-opacity="0"/>
</linearGradient>
<linearGradient id="paint6_linear_1741_265" x1="480.354" y1="301.731" x2="39.3296" y2="-59.559" gradientUnits="userSpaceOnUse">
<stop stop-color="#00CBFF"/>
<stop offset="0.927083" stop-color="white" stop-opacity="0"/>
</linearGradient>
<linearGradient id="paint7_linear_1741_265" x1="438.685" y1="267.782" x2="80.8163" y2="-25.3862" gradientUnits="userSpaceOnUse">
<stop stop-color="#00CBFF"/>
<stop offset="0.927083" stop-color="white" stop-opacity="0"/>
</linearGradient>
<linearGradient id="paint8_linear_1741_265" x1="433.476" y1="263.539" x2="86.0019" y2="-21.1144" gradientUnits="userSpaceOnUse">
<stop stop-color="#00CBFF"/>
<stop offset="0.927083" stop-color="white" stop-opacity="0"/>
</linearGradient>
<linearGradient id="paint9_linear_1741_265" x1="428.266" y1="259.295" x2="91.1869" y2="-16.8431" gradientUnits="userSpaceOnUse">
<stop stop-color="#00CBFF"/>
<stop offset="0.927083" stop-color="white" stop-opacity="0"/>
</linearGradient>
<linearGradient id="paint10_linear_1741_265" x1="423.058" y1="255.051" x2="96.3734" y2="-12.5713" gradientUnits="userSpaceOnUse">
<stop stop-color="#00CBFF"/>
<stop offset="0.927083" stop-color="white" stop-opacity="0"/>
</linearGradient>
<linearGradient id="paint11_linear_1741_265" x1="417.849" y1="250.807" x2="101.559" y2="-8.29995" gradientUnits="userSpaceOnUse">
<stop stop-color="#00CBFF"/>
<stop offset="0.927083" stop-color="white" stop-opacity="0"/>
</linearGradient>
<linearGradient id="paint12_linear_1741_265" x1="412.641" y1="246.564" x2="106.745" y2="-4.02815" gradientUnits="userSpaceOnUse">
<stop stop-color="#00CBFF"/>
<stop offset="0.927083" stop-color="white" stop-opacity="0"/>
</linearGradient>
<linearGradient id="paint13_linear_1741_265" x1="407.432" y1="242.32" x2="111.931" y2="0.24326" gradientUnits="userSpaceOnUse">
<stop stop-color="#00CBFF"/>
<stop offset="0.927083" stop-color="white" stop-opacity="0"/>
</linearGradient>
<linearGradient id="paint14_linear_1741_265" x1="402.224" y1="238.076" x2="117.117" y2="4.51504" gradientUnits="userSpaceOnUse">
<stop stop-color="#00CBFF"/>
<stop offset="0.927083" stop-color="white" stop-opacity="0"/>
</linearGradient>
<linearGradient id="paint15_linear_1741_265" x1="397.014" y1="233.833" x2="122.302" y2="8.78637" gradientUnits="userSpaceOnUse">
<stop stop-color="#00CBFF"/>
<stop offset="0.927083" stop-color="white" stop-opacity="0"/>
</linearGradient>
<linearGradient id="paint16_linear_1741_265" x1="391.806" y1="229.589" x2="127.488" y2="13.0582" gradientUnits="userSpaceOnUse">
<stop stop-color="#00CBFF"/>
<stop offset="0.927083" stop-color="white" stop-opacity="0"/>
</linearGradient>
<linearGradient id="paint17_linear_1741_265" x1="386.597" y1="225.346" x2="132.674" y2="17.33" gradientUnits="userSpaceOnUse">
<stop stop-color="#00CBFF"/>
<stop offset="0.927083" stop-color="white" stop-opacity="0"/>
</linearGradient>
<linearGradient id="paint18_linear_1741_265" x1="381.388" y1="221.102" x2="137.859" y2="21.6013" gradientUnits="userSpaceOnUse">
<stop stop-color="#00CBFF"/>
<stop offset="0.927083" stop-color="white" stop-opacity="0"/>
</linearGradient>
<linearGradient id="paint19_linear_1741_265" x1="376.18" y1="216.858" x2="143.046" y2="25.8731" gradientUnits="userSpaceOnUse">
<stop stop-color="#00CBFF"/>
<stop offset="0.927083" stop-color="white" stop-opacity="0"/>
</linearGradient>
<linearGradient id="paint20_linear_1741_265" x1="370.971" y1="212.614" x2="148.231" y2="30.1445" gradientUnits="userSpaceOnUse">
<stop stop-color="#00CBFF"/>
<stop offset="0.927083" stop-color="white" stop-opacity="0"/>
</linearGradient>
<linearGradient id="paint21_linear_1741_265" x1="443.893" y1="272.026" x2="75.6298" y2="-29.6576" gradientUnits="userSpaceOnUse">
<stop stop-color="#00CBFF"/>
<stop offset="0.927083" stop-color="white" stop-opacity="0"/>
</linearGradient>
</defs>
</svg>
