<svg width="100" height="41" viewBox="0 0 100 41" fill="none" xmlns="http://www.w3.org/2000/svg">
<path d="M99.9997 18.5401V31.333H93.1234V20.3356C93.1476 17.3137 90.7695 14.8048 87.7385 14.6365H87.4483C85.9328 14.6365 84.4576 15.1415 83.2645 16.0713V31.349H76.3237V8.55268H83.2564V9.5386C86.4164 8.33626 89.8908 8.22404 93.1234 9.21798L93.204 9.24202C97.2669 10.5405 100.016 14.2999 99.9997 18.5481" fill="#0A3ADC"/>
<path d="M11.4631 25.4895C8.45626 25.4895 6.0137 23.0608 6.0137 20.0709C6.0137 17.0891 8.45626 14.6524 11.4631 14.6524C14.47 14.6524 16.9125 17.0811 16.9125 20.0709C16.9045 23.0527 14.4619 25.4895 11.4631 25.4895ZM11.4631 8.67279C5.12696 8.67279 0 13.7787 0 20.0709C0 26.3632 5.12696 31.4691 11.4631 31.4691C17.7912 31.4691 22.9262 26.3712 22.9262 20.0709C22.9182 13.7787 17.7912 8.67279 11.4631 8.67279Z" fill="#0A3ADC"/>
<path d="M34.115 8.60063H40.7091V14.5642H34.115V22.7722C34.115 23.2531 34.1473 23.6779 34.2037 24.0467C34.2601 24.4154 34.4213 24.728 34.6712 24.9845C34.9292 25.241 35.3242 25.4333 35.8724 25.5616C36.4125 25.6898 37.1702 25.754 38.1456 25.754C38.7986 25.754 39.4838 25.7219 40.2013 25.6498C40.9187 25.5776 41.5555 25.4574 42.1279 25.2891V31.5011C41.5555 31.6454 40.9026 31.7496 40.161 31.8218C39.4193 31.8939 38.6454 31.926 37.8474 31.926C35.9046 31.926 34.2682 31.7416 32.9219 31.3729C31.5838 31.0042 30.4955 30.4751 29.6652 29.7778C28.8349 29.0804 27.271 27.7098 27.271 23.6298V2.43665H34.1231V8.60063H34.115Z" fill="#0A3ADC"/>
<g opacity="0.7">
<path opacity="0.7" d="M47.5563 34.3628C47.0162 35.2926 45.807 35.6133 44.8719 35.0762C43.9368 34.5392 43.6144 33.3368 44.1545 32.407C44.6946 31.4772 45.9038 31.1566 46.8389 31.6936C47.2903 31.9501 47.6127 32.383 47.7498 32.8799C47.8868 33.3769 47.8143 33.914 47.5563 34.3628Z" fill="#0A3ADC"/>
<path opacity="0.7" d="M74.3356 7.79915C73.7875 8.72896 72.5863 9.04958 71.6512 8.50452C70.7161 7.95946 70.3937 6.76514 70.9418 5.83533C71.49 4.90553 72.6911 4.5849 73.6262 5.12996C74.0777 5.38646 74.4001 5.8193 74.5372 6.31627C74.6661 6.82125 74.5936 7.35028 74.3356 7.79915Z" fill="#0A3ADC"/>
<path opacity="0.7" d="M44.8797 8.52857C43.9365 7.99152 43.6141 6.78918 44.1623 5.85136C44.7024 4.91354 45.9115 4.59291 46.8547 5.13797C47.7979 5.67502 48.1203 6.87736 47.5721 7.81518C47.3142 8.26405 46.8789 8.59269 46.3791 8.72896C45.8632 8.85721 45.3311 8.78506 44.8797 8.52857Z" fill="#0A3ADC"/>
<path opacity="0.7" d="M71.6434 35.0842C70.7002 34.5472 70.3778 33.3448 70.9259 32.407C71.466 31.4692 72.6752 31.1486 73.6184 31.6936C74.5616 32.2307 74.884 33.433 74.3439 34.3628C73.7877 35.3007 72.5865 35.6213 71.6434 35.0842Z" fill="#0A3ADC"/>
<path opacity="0.7" d="M52.6432 2.9497C52.1031 2.01187 52.4256 0.817551 53.3607 0.272492C54.3039 -0.264552 55.505 0.0560711 56.0532 0.985878C56.5933 1.9237 56.2708 3.11802 55.3357 3.66308C54.3926 4.20013 53.1914 3.8795 52.6432 2.9497Z" fill="#0A3ADC"/>
<path opacity="0.7" d="M62.4374 39.2201C61.8973 38.2823 62.2197 37.088 63.1629 36.551C64.1061 36.0139 65.3072 36.3345 65.8473 37.2724C66.3874 38.2102 66.065 39.4045 65.1218 39.9415C64.6704 40.198 64.1383 40.2702 63.6385 40.1339C63.1226 40.0057 62.6953 39.677 62.4374 39.2201Z" fill="#0A3ADC"/>
<path opacity="0.7" d="M62.2114 1.96382C62.2114 0.881714 63.0901 0 64.1784 0C65.2666 0 66.1534 0.873698 66.1534 1.9558C66.1534 3.0379 65.2747 3.91962 64.1864 3.91962C64.1864 3.91962 64.1864 3.91962 64.1784 3.91962C63.0901 3.91962 62.2114 3.04592 62.2114 1.96382Z" fill="#0A3ADC"/>
<path opacity="0.7" d="M52.4092 38.2423C52.4092 37.1602 53.2879 36.2785 54.3761 36.2785C55.4644 36.2785 56.3511 37.1522 56.3511 38.2343C56.3511 39.3164 55.4725 40.1981 54.3842 40.1981C54.3842 40.1981 54.3842 40.1981 54.3761 40.1981C53.2879 40.1981 52.4092 39.3244 52.4092 38.2423Z" fill="#0A3ADC"/>
</g>
<path d="M59.2487 11.5836C60.8158 11.5836 62.0863 10.3204 62.0863 8.76216C62.0863 7.20389 60.8158 5.94067 59.2487 5.94067C57.6816 5.94067 56.4111 7.20389 56.4111 8.76216C56.4111 10.3204 57.6816 11.5836 59.2487 11.5836Z" fill="#0A3ADC"/>
<path d="M73.359 20.4333C73.6116 18.8954 72.5626 17.4451 71.016 17.1939C69.4694 16.9428 68.0108 17.9858 67.7582 19.5236C67.5056 21.0615 68.5546 22.5118 70.1012 22.763C71.6478 23.0142 73.1064 21.9711 73.359 20.4333Z" fill="#0A3ADC"/>
<path d="M59.2487 28.3762C60.8126 28.3762 62.0863 29.6426 62.0863 31.1976C62.0863 32.7527 60.8126 34.0191 59.2487 34.0191C57.6848 34.0191 56.4111 32.7527 56.4111 31.1976C56.4111 29.6346 57.6768 28.3762 59.2487 28.3762Z" fill="#0A3ADC"/>
<path d="M47.9308 17.1545C49.4947 17.1545 50.7684 18.421 50.7684 19.976C50.7684 21.5311 49.4947 22.7975 47.9308 22.7975C46.3669 22.7975 45.0933 21.5311 45.0933 19.976C45.0933 18.421 46.3669 17.1545 47.9308 17.1545Z" fill="#0A3ADC"/>
<path d="M68.1927 14.6978C69.6699 14.1773 70.4431 12.5647 69.9196 11.0959C69.3962 9.62707 67.7744 8.85827 66.2972 9.37873C64.8201 9.89919 64.0469 11.5118 64.5703 12.9806C65.0937 14.4495 66.7155 15.2183 68.1927 14.6978Z" fill="#0A3ADC"/>
<path d="M67.2458 25.0898C68.8096 25.0898 70.0833 26.3563 70.0833 27.9113C70.0833 29.4664 68.8096 30.7328 67.2458 30.7328C65.6819 30.7328 64.4082 29.4664 64.4082 27.9113C64.4082 26.3563 65.6819 25.0898 67.2458 25.0898Z" fill="#0A3ADC"/>
<path d="M51.2443 25.0898C52.8082 25.0898 54.0819 26.3563 54.0819 27.9113C54.0819 29.4664 52.8082 30.7328 51.2443 30.7328C49.6804 30.7328 48.4067 29.4664 48.4067 27.9113C48.4067 26.3563 49.6804 25.0898 51.2443 25.0898Z" fill="#0A3ADC"/>
<path d="M51.2443 9.22699C52.8082 9.22699 54.0819 10.4935 54.0819 12.0485C54.0819 13.6035 52.8082 14.87 51.2443 14.87C49.6804 14.87 48.4067 13.6035 48.4067 12.0485C48.4067 10.4854 49.6804 9.22699 51.2443 9.22699Z" fill="#0A3ADC"/>
<path d="M59.2568 14.9983C62.0299 14.9983 64.287 17.2346 64.287 19.984C64.287 22.7413 62.0379 24.9697 59.2568 24.9697C56.4837 24.9697 54.2266 22.7413 54.2266 19.984C54.2266 17.2266 56.4837 14.9983 59.2568 14.9983Z" fill="#0A3ADC"/>
</svg>
