<svg width="50" height="50" viewBox="0 0 50 50" fill="none" xmlns="http://www.w3.org/2000/svg">
<g filter="url(#filter0_bd_1744_394)">
<path d="M5 3C5 1.89543 5.89543 1 7 1H43C44.1046 1 45 1.89543 45 3V39C45 40.1046 44.1046 41 43 41H7C5.89543 41 5 40.1046 5 39V3Z" fill="url(#paint0_radial_1744_394)" shape-rendering="crispEdges"/>
<path d="M37.2664 29.712L30.7853 23.2327C30.3069 22.7544 29.6782 22.5096 29.0552 22.4985C31.4863 18.8779 31.1024 13.9169 27.9036 10.719C24.2709 7.09276 18.3573 7.09276 14.7245 10.7245C11.0918 14.3563 11.0918 20.2683 14.7245 23.9001C17.9233 27.098 22.8857 27.4818 26.5017 25.0513C26.5128 25.6798 26.7576 26.3027 27.236 26.7865L33.7115 33.2659C34.6906 34.2447 36.2817 34.2447 37.2608 33.2659C38.2455 32.2815 38.2455 30.6908 37.2664 29.712ZM25.4113 21.4084C23.1527 23.6665 19.4755 23.6665 17.2168 21.4084C14.9582 19.1504 14.9582 15.4742 17.2168 13.2161C19.4755 10.9581 23.1527 10.9581 25.4113 13.2161C27.67 15.4742 27.67 19.1504 25.4113 21.4084Z" fill="white"/>
</g>
<defs>
<filter id="filter0_bd_1744_394" x="-15" y="-19" width="80" height="80" filterUnits="userSpaceOnUse" color-interpolation-filters="sRGB">
<feFlood flood-opacity="0" result="BackgroundImageFix"/>
<feGaussianBlur in="BackgroundImage" stdDeviation="10"/>
<feComposite in2="SourceAlpha" operator="in" result="effect1_backgroundBlur_1744_394"/>
<feColorMatrix in="SourceAlpha" type="matrix" values="0 0 0 0 0 0 0 0 0 0 0 0 0 0 0 0 0 0 127 0" result="hardAlpha"/>
<feOffset dy="4"/>
<feGaussianBlur stdDeviation="2.5"/>
<feComposite in2="hardAlpha" operator="out"/>
<feColorMatrix type="matrix" values="0 0 0 0 0.0392157 0 0 0 0 0.227451 0 0 0 0 0.862745 0 0 0 0.25 0"/>
<feBlend mode="normal" in2="effect1_backgroundBlur_1744_394" result="effect2_dropShadow_1744_394"/>
<feBlend mode="normal" in="SourceGraphic" in2="effect2_dropShadow_1744_394" result="shape"/>
</filter>
<radialGradient id="paint0_radial_1744_394" cx="0" cy="0" r="1" gradientUnits="userSpaceOnUse" gradientTransform="translate(23.534 -95.9565) rotate(87.8623) scale(204.925 209.556)">
<stop offset="0.421875" stop-color="#00FFFF"/>
<stop offset="1" stop-color="#00CBFF"/>
</radialGradient>
</defs>
</svg>
