<svg width="80" height="90" viewBox="0 0 80 90" fill="none" xmlns="http://www.w3.org/2000/svg">
<g filter="url(#filter0_bd_1744_392)">
<path d="M20 23C20 21.8954 20.8954 21 22 21H58C59.1046 21 60 21.8954 60 23V59C60 60.1046 59.1046 61 58 61H22C20.8954 61 20 60.1046 20 59V23Z" fill="url(#paint0_radial_1744_392)" shape-rendering="crispEdges"/>
<path d="M52.2664 49.712L45.7853 43.2327C45.3069 42.7544 44.6782 42.5096 44.0552 42.4985C46.4863 38.8779 46.1024 33.9169 42.9036 30.719C39.2709 27.0928 33.3573 27.0928 29.7245 30.7245C26.0918 34.3563 26.0918 40.2683 29.7245 43.9001C32.9233 47.098 37.8857 47.4818 41.5017 45.0513C41.5128 45.6798 41.7576 46.3027 42.236 46.7865L48.7115 53.2659C49.6906 54.2447 51.2817 54.2447 52.2608 53.2659C53.2455 52.2815 53.2455 50.6908 52.2664 49.712ZM40.4113 41.4084C38.1527 43.6665 34.4755 43.6665 32.2168 41.4084C29.9582 39.1504 29.9582 35.4742 32.2168 33.2161C34.4755 30.9581 38.1527 30.9581 40.4113 33.2161C42.67 35.4742 42.67 39.1504 40.4113 41.4084Z" fill="white"/>
</g>
<defs>
<filter id="filter0_bd_1744_392" x="-5" y="0" width="90" height="90" filterUnits="userSpaceOnUse" color-interpolation-filters="sRGB">
<feFlood flood-opacity="0" result="BackgroundImageFix"/>
<feGaussianBlur in="BackgroundImage" stdDeviation="10"/>
<feComposite in2="SourceAlpha" operator="in" result="effect1_backgroundBlur_1744_392"/>
<feColorMatrix in="SourceAlpha" type="matrix" values="0 0 0 0 0 0 0 0 0 0 0 0 0 0 0 0 0 0 127 0" result="hardAlpha"/>
<feOffset dy="4"/>
<feGaussianBlur stdDeviation="12.5"/>
<feComposite in2="hardAlpha" operator="out"/>
<feColorMatrix type="matrix" values="0 0 0 0 0.0392157 0 0 0 0 0.227451 0 0 0 0 0.862745 0 0 0 0.5 0"/>
<feBlend mode="normal" in2="effect1_backgroundBlur_1744_392" result="effect2_dropShadow_1744_392"/>
<feBlend mode="normal" in="SourceGraphic" in2="effect2_dropShadow_1744_392" result="shape"/>
</filter>
<radialGradient id="paint0_radial_1744_392" cx="0" cy="0" r="1" gradientUnits="userSpaceOnUse" gradientTransform="translate(38.534 -75.9565) rotate(87.8623) scale(204.925 209.556)">
<stop offset="0.421875" stop-color="#00CBFF"/>
<stop offset="1" stop-color="#00FFFF"/>
</radialGradient>
</defs>
</svg>
