<svg width="38" height="38" viewBox="0 0 38 38" fill="none" xmlns="http://www.w3.org/2000/svg">
<g filter="url(#filter0_d_1509_651)">
<circle cx="19" cy="15" r="15" fill="url(#paint0_linear_1509_651)"/>
</g>
<path d="M11.0827 14.3831C15.3106 12.478 18.1298 11.222 19.5404 10.6152C23.568 8.88253 24.4049 8.58155 24.9504 8.57151C25.0703 8.56943 25.3386 8.60018 25.5123 8.74601C25.6591 8.86914 25.6994 9.03548 25.7187 9.15222C25.7381 9.26897 25.7621 9.53492 25.743 9.74272C25.5247 12.1146 24.5804 17.8704 24.0999 20.5269C23.8966 21.6509 23.4963 22.0278 23.1088 22.0647C22.2666 22.1449 21.627 21.4891 20.8113 20.936C19.5349 20.0706 18.8138 19.5319 17.5748 18.6874C16.1429 17.7115 17.0711 17.1751 17.8872 16.2985C18.1007 16.0691 21.8115 12.5782 21.8833 12.2615C21.8923 12.2219 21.9006 12.0743 21.8158 11.9963C21.731 11.9183 21.6059 11.945 21.5156 11.9662C21.3875 11.9963 19.3484 13.3902 15.3982 16.1481C14.8194 16.5592 14.2952 16.7595 13.8254 16.749C13.3076 16.7374 12.3115 16.4462 11.571 16.1972C10.6628 15.8919 9.94096 15.7304 10.0038 15.2119C10.0366 14.9417 10.3962 14.6655 11.0827 14.3831Z" fill="white"/>
<defs>
<filter id="filter0_d_1509_651" x="0" y="0" width="38" height="38" filterUnits="userSpaceOnUse" color-interpolation-filters="sRGB">
<feFlood flood-opacity="0" result="BackgroundImageFix"/>
<feColorMatrix in="SourceAlpha" type="matrix" values="0 0 0 0 0 0 0 0 0 0 0 0 0 0 0 0 0 0 127 0" result="hardAlpha"/>
<feOffset dy="4"/>
<feGaussianBlur stdDeviation="2"/>
<feComposite in2="hardAlpha" operator="out"/>
<feColorMatrix type="matrix" values="0 0 0 0 0.0392157 0 0 0 0 0.227451 0 0 0 0 0.862745 0 0 0 0.25 0"/>
<feBlend mode="normal" in2="BackgroundImageFix" result="effect1_dropShadow_1509_651"/>
<feBlend mode="normal" in="SourceGraphic" in2="effect1_dropShadow_1509_651" result="shape"/>
</filter>
<linearGradient id="paint0_linear_1509_651" x1="19.0523" y1="2.30992e-09" x2="19.0523" y2="33.75" gradientUnits="userSpaceOnUse">
<stop stop-color="#0A3ADC"/>
<stop offset="0.476563" stop-color="#0589EF"/>
<stop offset="1" stop-color="#00CBFF"/>
</linearGradient>
</defs>
</svg>
