<svg width="34" height="34" viewBox="0 0 34 34" fill="none" xmlns="http://www.w3.org/2000/svg">
<g filter="url(#filter0_d_1509_654)">
<circle cx="17" cy="15" r="15" fill="url(#paint0_linear_1509_654)"/>
</g>
<path d="M9.08273 14.3831C13.3106 12.478 16.1298 11.222 17.5404 10.6152C21.568 8.88253 22.4049 8.58155 22.9504 8.57151C23.0703 8.56943 23.3386 8.60018 23.5123 8.74601C23.6591 8.86914 23.6994 9.03548 23.7187 9.15222C23.7381 9.26897 23.7621 9.53492 23.743 9.74272C23.5247 12.1146 22.5804 17.8704 22.0999 20.5269C21.8966 21.6509 21.4963 22.0278 21.1088 22.0647C20.2666 22.1449 19.627 21.4891 18.8113 20.936C17.5349 20.0706 16.8138 19.5319 15.5748 18.6874C14.1429 17.7115 15.0711 17.1751 15.8872 16.2985C16.1007 16.0691 19.8115 12.5782 19.8833 12.2615C19.8923 12.2219 19.9006 12.0743 19.8158 11.9963C19.731 11.9183 19.6059 11.945 19.5156 11.9662C19.3875 11.9963 17.3484 13.3902 13.3982 16.1481C12.8194 16.5592 12.2952 16.7595 11.8254 16.749C11.3076 16.7374 10.3115 16.4462 9.57104 16.1972C8.66281 15.8919 7.94096 15.7304 8.00382 15.2119C8.03656 14.9417 8.39619 14.6655 9.08273 14.3831Z" fill="white"/>
<defs>
<filter id="filter0_d_1509_654" x="0" y="0" width="34" height="34" filterUnits="userSpaceOnUse" color-interpolation-filters="sRGB">
<feFlood flood-opacity="0" result="BackgroundImageFix"/>
<feColorMatrix in="SourceAlpha" type="matrix" values="0 0 0 0 0 0 0 0 0 0 0 0 0 0 0 0 0 0 127 0" result="hardAlpha"/>
<feOffset dy="2"/>
<feGaussianBlur stdDeviation="1"/>
<feComposite in2="hardAlpha" operator="out"/>
<feColorMatrix type="matrix" values="0 0 0 0 0.0392157 0 0 0 0 0.227451 0 0 0 0 0.862745 0 0 0 0.25 0"/>
<feBlend mode="normal" in2="BackgroundImageFix" result="effect1_dropShadow_1509_654"/>
<feBlend mode="normal" in="SourceGraphic" in2="effect1_dropShadow_1509_654" result="shape"/>
</filter>
<linearGradient id="paint0_linear_1509_654" x1="17" y1="-24.1667" x2="17.0523" y2="33.75" gradientUnits="userSpaceOnUse">
<stop stop-color="#0A3ADC"/>
<stop offset="0.770833" stop-color="#00CBFF"/>
</linearGradient>
</defs>
</svg>
